<?xml version="1.0" encoding="UTF-8" standalone="no" ?>
<!DOCTYPE svg PUBLIC "-//W3C//DTD SVG 1.1//EN" "http://www.w3.org/Graphics/SVG/1.1/DTD/svg11.dtd">
<svg xmlns="http://www.w3.org/2000/svg" xmlns:xlink="http://www.w3.org/1999/xlink" version="1.1" width="207" height="49" viewBox="0 0 207 49" xml:space="preserve">
<desc>Created with Fabric.js 5.2.4</desc>
<defs>
</defs>
<rect x="0" y="0" width="100%" height="100%" fill="transparent"></rect>
<g transform="matrix(Infinity NaN NaN Infinity 0 0)" id="78308cfc-914b-4366-8647-c3fa9d2b9fa8"  >
</g>
<g transform="matrix(1 0 0 1 103.5 24.5)" id="4384fea3-e737-4ed4-86b6-bcd2641d5520"  >
<rect style="stroke: none; stroke-width: 1; stroke-dasharray: none; stroke-linecap: butt; stroke-dashoffset: 0; stroke-linejoin: miter; stroke-miterlimit: 4; fill: rgb(255,255,255); fill-rule: nonzero; opacity: 1; visibility: hidden;" vector-effect="non-scaling-stroke"  x="-103.5" y="-24.5" rx="0" ry="0" width="207" height="49" />
</g>
<g transform="matrix(0.98 0 0 0.74 105.41 24.5)"  >
<g style="" vector-effect="non-scaling-stroke"   >
		<g transform="matrix(1.33 0 0 1.33 -73.84 -6.59)"  >
<path style="stroke: none; stroke-width: 1; stroke-dasharray: none; stroke-linecap: butt; stroke-dashoffset: 0; stroke-linejoin: miter; stroke-miterlimit: 4; fill: rgb(27,156,228); fill-rule: nonzero; opacity: 1;" vector-effect="non-scaling-stroke"  transform=" translate(-23.67, -96.29)" d="M 11.578125 99.574219 C 11.578125 89.59375 19.667969 81.503906 29.648438 81.503906 C 34.210938 81.503906 38.378906 83.195312 41.558594 85.984375 C 38.097656 80.621094 32.070312 77.070312 25.214844 77.070312 C 14.480469 77.070312 5.78125 85.773438 5.78125 96.503906 C 5.78125 105.828125 12.347656 113.621094 21.109375 115.503906 C 15.4375 112.457031 11.578125 106.464844 11.578125 99.574219" stroke-linecap="round" />
</g>
		<g transform="matrix(1.33 0 0 1.33 -64.42 0)" clip-path="url(#CLIPPATH_9)"  >
<clipPath id="CLIPPATH_9" >
	<path transform="matrix(1 0 0 1 0.14 0.37) translate(-30.88, -101.61)" id="5" d="M 1 72.210938 L 60.75 72.210938 L 60.75 131 L 1 131 Z M 1 72.210938" stroke-linecap="round" />
</clipPath>
<path style="stroke: none; stroke-width: 1; stroke-dasharray: none; stroke-linecap: butt; stroke-dashoffset: 0; stroke-linejoin: miter; stroke-miterlimit: 4; fill: rgb(24,62,159); fill-rule: nonzero; opacity: 1;" vector-effect="non-scaling-stroke"  transform=" translate(-30.74, -101.23)" d="M 48.3125 72.34375 C 47.957031 72.210938 47.796875 72.582031 47.734375 73.082031 C 47.617188 74.0625 48.007812 75.03125 48.75 75.679688 C 56.496094 82.46875 54.992188 99.101562 49.929688 98.109375 C 46.605469 97.460938 50.144531 87.578125 47.375 87.242188 C 45.53125 87.015625 43.898438 91.597656 44.015625 97.636719 C 44.082031 101.09375 45.191406 103.945312 46.164062 106.421875 C 47.578125 110.007812 46.28125 114.113281 43.03125 116.183594 C 32.695312 122.78125 18.8125 121.566406 9.785156 112.535156 C 5.011719 107.765625 2.425781 101.640625 2.015625 95.398438 C 0.0234375 104.640625 2.625 114.675781 9.828125 121.847656 C 18.902344 130.886719 33.398438 132.769531 44.492188 126.363281 C 55.019531 120.28125 59.425781 107.769531 60.050781 96.132812 C 60.847656 81.335938 52.355469 73.867188 48.3125 72.34375 Z M 46.859375 80.441406 C 50.886719 83.980469 52.40625 90.175781 52.226562 95.164062 C 52.859375 93.617188 53.203125 91.351562 53.125 88.925781 C 53.019531 85.683594 52.25 82.644531 50.957031 80.183594 C 49.285156 78.578125 47.640625 77.5625 46.410156 77.097656 C 46.046875 76.960938 45.890625 77.351562 45.832031 77.871094 C 45.722656 78.84375 46.125 79.796875 46.859375 80.441406" stroke-linecap="round" />
</g>
		<g transform="matrix(1.33 0 0 1.33 -61.57 4.93)" clip-path="url(#CLIPPATH_10)"  >
<clipPath id="CLIPPATH_10" >
	<path transform="matrix(1 0 0 1 0.01 0) translate(-32.88, -104.93)" id="9" clip-path="url(#undefined)" d="M 19.121094 99.980469 C 19.121094 107.644531 32.878906 116.992188 32.878906 116.992188 C 32.878906 116.992188 46.578125 107.578125 46.636719 99.980469 C 46.636719 96.054688 43.441406 92.859375 39.515625 92.859375 C 36.5 92.859375 33.902344 94.789062 32.878906 97.441406 C 31.855469 94.789062 29.257812 92.859375 26.242188 92.859375 C 22.320312 92.859375 19.121094 96.054688 19.121094 99.980469" stroke-linecap="round" />
</clipPath>
<path style="stroke: none; stroke-width: 1; stroke-dasharray: none; stroke-linecap: butt; stroke-dashoffset: 0; stroke-linejoin: miter; stroke-miterlimit: 4; fill: rgb(24,62,159); fill-rule: nonzero; opacity: 1;" vector-effect="non-scaling-stroke"  transform=" translate(-32.87, -104.93)" d="M 19.121094 92.859375 L 46.613281 92.859375 L 46.613281 116.992188 L 19.121094 116.992188 Z M 19.121094 92.859375" stroke-linecap="round" />
</g>
		<g transform="matrix(1.33 0 0 1.33 -61.57 8.21)" clip-path="url(#CLIPPATH_11)"  >
<clipPath id="CLIPPATH_11" >
	<path transform="matrix(1 0 0 1 0.01 0) translate(-11.88, -10.39)" id="b6333e8c1c" clip-path="url(#undefined)" d="M 0.933594 6.453125 C 0.933594 12.554688 11.878906 19.992188 11.878906 19.992188 C 11.878906 19.992188 22.78125 12.5 22.828125 6.453125 C 22.828125 3.328125 20.285156 0.785156 17.160156 0.785156 C 14.761719 0.785156 12.695312 2.324219 11.878906 4.433594 C 11.066406 2.324219 9 0.785156 6.597656 0.785156 C 3.476562 0.785156 0.933594 3.328125 0.933594 6.453125" stroke-linecap="round" />
</clipPath>
<path style="stroke: none; stroke-width: 1; stroke-dasharray: none; stroke-linecap: butt; stroke-dashoffset: 0; stroke-linejoin: miter; stroke-miterlimit: 4; fill: rgb(84,175,230); fill-rule: nonzero; opacity: 1;" vector-effect="non-scaling-stroke"  transform=" translate(-11.87, -10.39)" d="M 0.933594 0.785156 L 22.808594 0.785156 L 22.808594 19.992188 L 0.933594 19.992188 Z M 0.933594 0.785156" stroke-linecap="round" />
</g>
		<g transform="matrix(1.33 0 0 1.33 -16.52 -24.35)"  >
<path style="stroke: none; stroke-width: 1; stroke-dasharray: none; stroke-linecap: butt; stroke-dashoffset: 0; stroke-linejoin: miter; stroke-miterlimit: 4; fill: rgb(24,49,114); fill-rule: nonzero; opacity: 1;" vector-effect="non-scaling-stroke"  transform=" translate(-5.24, 6.01)" d="M 9.609375 -3.328125 C 9.609375 -2.554688 9.390625 -1.910156 8.953125 -1.390625 C 8.515625 -0.867188 7.984375 -0.503906 7.359375 -0.296875 C 6.742188 -0.0976562 6.054688 0 5.296875 0 L 1.09375 0 L 1.09375 -11.015625 C 1.09375 -11.023438 1.070312 -11.101562 1.03125 -11.25 C 1 -11.40625 0.960938 -11.566406 0.921875 -11.734375 C 0.890625 -11.898438 0.875 -11.992188 0.875 -12.015625 L 5.140625 -12.015625 C 5.648438 -12.015625 6.117188 -11.972656 6.546875 -11.890625 C 6.984375 -11.804688 7.398438 -11.664062 7.796875 -11.46875 C 8.191406 -11.269531 8.5 -10.976562 8.71875 -10.59375 C 8.945312 -10.207031 9.0625 -9.742188 9.0625 -9.203125 C 9.0625 -8.515625 8.820312 -7.921875 8.34375 -7.421875 C 7.875 -6.929688 7.296875 -6.640625 6.609375 -6.546875 C 7.453125 -6.398438 8.160156 -6.035156 8.734375 -5.453125 C 9.316406 -4.867188 9.609375 -4.160156 9.609375 -3.328125 Z M 6.671875 -8.890625 C 6.671875 -9.390625 6.519531 -9.765625 6.21875 -10.015625 C 5.925781 -10.265625 5.519531 -10.390625 5 -10.390625 L 3.359375 -10.390625 L 3.359375 -7.3125 L 5.046875 -7.3125 C 5.523438 -7.3125 5.914062 -7.457031 6.21875 -7.75 C 6.519531 -8.039062 6.671875 -8.421875 6.671875 -8.890625 Z M 7.234375 -3.59375 C 7.234375 -4.28125 6.976562 -4.800781 6.46875 -5.15625 C 5.96875 -5.507812 5.359375 -5.6875 4.640625 -5.6875 L 3.359375 -5.6875 L 3.359375 -1.625 L 5.15625 -1.625 C 5.78125 -1.625 6.28125 -1.796875 6.65625 -2.140625 C 7.039062 -2.492188 7.234375 -2.976562 7.234375 -3.59375 Z M 7.234375 -3.59375" stroke-linecap="round" />
</g>
		<g transform="matrix(1.33 0 0 1.33 -2.02 -24.34)"  >
<path style="stroke: none; stroke-width: 1; stroke-dasharray: none; stroke-linecap: butt; stroke-dashoffset: 0; stroke-linejoin: miter; stroke-miterlimit: 4; fill: rgb(24,49,114); fill-rule: nonzero; opacity: 1;" vector-effect="non-scaling-stroke"  transform=" translate(-6.05, 6)" d="M 11.78125 -5.984375 C 11.78125 -4.179688 11.257812 -2.703125 10.21875 -1.546875 C 9.175781 -0.390625 7.765625 0.1875 5.984375 0.1875 C 4.203125 0.1875 2.8125 -0.394531 1.8125 -1.5625 C 0.8125 -2.726562 0.3125 -4.210938 0.3125 -6.015625 C 0.3125 -7.835938 0.8125 -9.320312 1.8125 -10.46875 C 2.820312 -11.613281 4.21875 -12.1875 6 -12.1875 C 7.832031 -12.1875 9.253906 -11.613281 10.265625 -10.46875 C 11.273438 -9.332031 11.78125 -7.835938 11.78125 -5.984375 Z M 9.359375 -5.921875 C 9.359375 -6.503906 9.300781 -7.050781 9.1875 -7.5625 C 9.082031 -8.082031 8.90625 -8.582031 8.65625 -9.0625 C 8.414062 -9.539062 8.066406 -9.921875 7.609375 -10.203125 C 7.160156 -10.484375 6.628906 -10.625 6.015625 -10.625 C 5.421875 -10.625 4.898438 -10.488281 4.453125 -10.21875 C 4.003906 -9.957031 3.65625 -9.597656 3.40625 -9.140625 C 3.164062 -8.691406 2.988281 -8.210938 2.875 -7.703125 C 2.769531 -7.191406 2.71875 -6.65625 2.71875 -6.09375 C 2.71875 -5.507812 2.769531 -4.957031 2.875 -4.4375 C 2.988281 -3.914062 3.164062 -3.414062 3.40625 -2.9375 C 3.65625 -2.46875 4.003906 -2.085938 4.453125 -1.796875 C 4.910156 -1.515625 5.441406 -1.375 6.046875 -1.375 C 6.648438 -1.375 7.175781 -1.507812 7.625 -1.78125 C 8.070312 -2.050781 8.414062 -2.410156 8.65625 -2.859375 C 8.90625 -3.316406 9.082031 -3.796875 9.1875 -4.296875 C 9.300781 -4.804688 9.359375 -5.347656 9.359375 -5.921875 Z M 9.359375 -5.921875" stroke-linecap="round" />
</g>
		<g transform="matrix(1.33 0 0 1.33 14.1 -24.34)"  >
<path style="stroke: none; stroke-width: 1; stroke-dasharray: none; stroke-linecap: butt; stroke-dashoffset: 0; stroke-linejoin: miter; stroke-miterlimit: 4; fill: rgb(24,49,114); fill-rule: nonzero; opacity: 1;" vector-effect="non-scaling-stroke"  transform=" translate(-6.05, 6)" d="M 11.78125 -5.984375 C 11.78125 -4.179688 11.257812 -2.703125 10.21875 -1.546875 C 9.175781 -0.390625 7.765625 0.1875 5.984375 0.1875 C 4.203125 0.1875 2.8125 -0.394531 1.8125 -1.5625 C 0.8125 -2.726562 0.3125 -4.210938 0.3125 -6.015625 C 0.3125 -7.835938 0.8125 -9.320312 1.8125 -10.46875 C 2.820312 -11.613281 4.21875 -12.1875 6 -12.1875 C 7.832031 -12.1875 9.253906 -11.613281 10.265625 -10.46875 C 11.273438 -9.332031 11.78125 -7.835938 11.78125 -5.984375 Z M 9.359375 -5.921875 C 9.359375 -6.503906 9.300781 -7.050781 9.1875 -7.5625 C 9.082031 -8.082031 8.90625 -8.582031 8.65625 -9.0625 C 8.414062 -9.539062 8.066406 -9.921875 7.609375 -10.203125 C 7.160156 -10.484375 6.628906 -10.625 6.015625 -10.625 C 5.421875 -10.625 4.898438 -10.488281 4.453125 -10.21875 C 4.003906 -9.957031 3.65625 -9.597656 3.40625 -9.140625 C 3.164062 -8.691406 2.988281 -8.210938 2.875 -7.703125 C 2.769531 -7.191406 2.71875 -6.65625 2.71875 -6.09375 C 2.71875 -5.507812 2.769531 -4.957031 2.875 -4.4375 C 2.988281 -3.914062 3.164062 -3.414062 3.40625 -2.9375 C 3.65625 -2.46875 4.003906 -2.085938 4.453125 -1.796875 C 4.910156 -1.515625 5.441406 -1.375 6.046875 -1.375 C 6.648438 -1.375 7.175781 -1.507812 7.625 -1.78125 C 8.070312 -2.050781 8.414062 -2.410156 8.65625 -2.859375 C 8.90625 -3.316406 9.082031 -3.796875 9.1875 -4.296875 C 9.300781 -4.804688 9.359375 -5.347656 9.359375 -5.921875 Z M 9.359375 -5.921875" stroke-linecap="round" />
</g>
		<g transform="matrix(1.33 0 0 1.33 29.25 -24.35)"  >
<path style="stroke: none; stroke-width: 1; stroke-dasharray: none; stroke-linecap: butt; stroke-dashoffset: 0; stroke-linejoin: miter; stroke-miterlimit: 4; fill: rgb(24,49,114); fill-rule: nonzero; opacity: 1;" vector-effect="non-scaling-stroke"  transform=" translate(-5.33, 6.01)" d="M 9.796875 0 L 7.171875 0 L 3.34375 -6.09375 L 3.34375 0 L 1.078125 0 L 1.078125 -11.015625 C 1.078125 -11.023438 1.054688 -11.101562 1.015625 -11.25 C 0.984375 -11.40625 0.945312 -11.566406 0.90625 -11.734375 C 0.875 -11.898438 0.859375 -11.992188 0.859375 -12.015625 L 3.34375 -12.015625 L 3.34375 -6.640625 L 7.34375 -12.015625 L 9.453125 -12.015625 L 5.546875 -6.765625 Z M 9.796875 0" stroke-linecap="round" />
</g>
		<g transform="matrix(1.33 0 0 1.33 46.84 -24.35)"  >
<path style="stroke: none; stroke-width: 1; stroke-dasharray: none; stroke-linecap: butt; stroke-dashoffset: 0; stroke-linejoin: miter; stroke-miterlimit: 4; fill: rgb(24,49,114); fill-rule: nonzero; opacity: 1;" vector-effect="non-scaling-stroke"  transform=" translate(-5.17, 6.01)" d="M 10.3125 0 L 7.890625 0 L 6.703125 -3.453125 L 3.171875 -3.453125 L 1.9375 0 L 0.03125 0 L 4.28125 -12.015625 L 6.078125 -12.015625 Z M 6.171875 -5.046875 C 5.640625 -6.660156 5.222656 -8.03125 4.921875 -9.15625 C 4.546875 -7.789062 4.144531 -6.421875 3.71875 -5.046875 Z M 6.171875 -5.046875" stroke-linecap="round" />
</g>
		<g transform="matrix(1.33 0 0 1.33 66.78 -24.35)"  >
<path style="stroke: none; stroke-width: 1; stroke-dasharray: none; stroke-linecap: butt; stroke-dashoffset: 0; stroke-linejoin: miter; stroke-miterlimit: 4; fill: rgb(24,49,114); fill-rule: nonzero; opacity: 1;" vector-effect="non-scaling-stroke"  transform=" translate(-6, 6.01)" d="M 11.15625 -5.984375 C 11.15625 -4.148438 10.59375 -2.675781 9.46875 -1.5625 C 8.425781 -0.519531 7.054688 0 5.359375 0 L 1.09375 0 L 1.09375 -11.015625 C 1.09375 -11.023438 1.050781 -11.179688 0.96875 -11.484375 C 0.894531 -11.796875 0.851562 -11.972656 0.84375 -12.015625 L 5.375 -12.015625 C 7.1875 -12.015625 8.601562 -11.460938 9.625 -10.359375 C 10.644531 -9.265625 11.15625 -7.804688 11.15625 -5.984375 Z M 8.734375 -5.921875 C 8.734375 -6.710938 8.625 -7.429688 8.40625 -8.078125 C 8.1875 -8.722656 7.804688 -9.269531 7.265625 -9.71875 C 6.722656 -10.164062 6.046875 -10.390625 5.234375 -10.390625 L 3.359375 -10.390625 L 3.359375 -1.625 L 5.265625 -1.625 C 5.867188 -1.625 6.398438 -1.738281 6.859375 -1.96875 C 7.316406 -2.207031 7.675781 -2.53125 7.9375 -2.9375 C 8.195312 -3.351562 8.394531 -3.804688 8.53125 -4.296875 C 8.664062 -4.796875 8.734375 -5.335938 8.734375 -5.921875 Z M 8.734375 -5.921875" stroke-linecap="round" />
</g>
		<g transform="matrix(1.33 0 0 1.33 82.12 -24.34)"  >
<path style="stroke: none; stroke-width: 1; stroke-dasharray: none; stroke-linecap: butt; stroke-dashoffset: 0; stroke-linejoin: miter; stroke-miterlimit: 4; fill: rgb(24,49,114); fill-rule: nonzero; opacity: 1;" vector-effect="non-scaling-stroke"  transform=" translate(-6.05, 6)" d="M 11.78125 -5.984375 C 11.78125 -4.179688 11.257812 -2.703125 10.21875 -1.546875 C 9.175781 -0.390625 7.765625 0.1875 5.984375 0.1875 C 4.203125 0.1875 2.8125 -0.394531 1.8125 -1.5625 C 0.8125 -2.726562 0.3125 -4.210938 0.3125 -6.015625 C 0.3125 -7.835938 0.8125 -9.320312 1.8125 -10.46875 C 2.820312 -11.613281 4.21875 -12.1875 6 -12.1875 C 7.832031 -12.1875 9.253906 -11.613281 10.265625 -10.46875 C 11.273438 -9.332031 11.78125 -7.835938 11.78125 -5.984375 Z M 9.359375 -5.921875 C 9.359375 -6.503906 9.300781 -7.050781 9.1875 -7.5625 C 9.082031 -8.082031 8.90625 -8.582031 8.65625 -9.0625 C 8.414062 -9.539062 8.066406 -9.921875 7.609375 -10.203125 C 7.160156 -10.484375 6.628906 -10.625 6.015625 -10.625 C 5.421875 -10.625 4.898438 -10.488281 4.453125 -10.21875 C 4.003906 -9.957031 3.65625 -9.597656 3.40625 -9.140625 C 3.164062 -8.691406 2.988281 -8.210938 2.875 -7.703125 C 2.769531 -7.191406 2.71875 -6.65625 2.71875 -6.09375 C 2.71875 -5.507812 2.769531 -4.957031 2.875 -4.4375 C 2.988281 -3.914062 3.164062 -3.414062 3.40625 -2.9375 C 3.65625 -2.46875 4.003906 -2.085938 4.453125 -1.796875 C 4.910156 -1.515625 5.441406 -1.375 6.046875 -1.375 C 6.648438 -1.375 7.175781 -1.507812 7.625 -1.78125 C 8.070312 -2.050781 8.414062 -2.410156 8.65625 -2.859375 C 8.90625 -3.316406 9.082031 -3.796875 9.1875 -4.296875 C 9.300781 -4.804688 9.359375 -5.347656 9.359375 -5.921875 Z M 9.359375 -5.921875" stroke-linecap="round" />
</g>
		<g transform="matrix(1.33 0 0 1.33 97.09 -24.36)"  >
<path style="stroke: none; stroke-width: 1; stroke-dasharray: none; stroke-linecap: butt; stroke-dashoffset: 0; stroke-linejoin: miter; stroke-miterlimit: 4; fill: rgb(24,49,114); fill-rule: nonzero; opacity: 1;" vector-effect="non-scaling-stroke"  transform=" translate(-5.19, 6.02)" d="M 10.046875 -1.015625 C 9.347656 -0.585938 8.703125 -0.273438 8.109375 -0.078125 C 7.515625 0.109375 6.835938 0.203125 6.078125 0.203125 C 4.222656 0.203125 2.800781 -0.375 1.8125 -1.53125 C 0.820312 -2.695312 0.328125 -4.21875 0.328125 -6.09375 C 0.328125 -7.875 0.847656 -9.34375 1.890625 -10.5 C 2.929688 -11.65625 4.332031 -12.234375 6.09375 -12.234375 C 6.769531 -12.234375 7.476562 -12.132812 8.21875 -11.9375 C 8.957031 -11.75 9.539062 -11.460938 9.96875 -11.078125 L 8.796875 -9.5625 C 8.492188 -9.894531 8.097656 -10.15625 7.609375 -10.34375 C 7.117188 -10.539062 6.640625 -10.640625 6.171875 -10.640625 C 5.359375 -10.640625 4.6875 -10.410156 4.15625 -9.953125 C 3.625 -9.492188 3.257812 -8.941406 3.0625 -8.296875 C 2.863281 -7.648438 2.765625 -6.929688 2.765625 -6.140625 C 2.765625 -5.609375 2.832031 -5.070312 2.96875 -4.53125 C 3.113281 -3.988281 3.316406 -3.472656 3.578125 -2.984375 C 3.835938 -2.503906 4.195312 -2.109375 4.65625 -1.796875 C 5.113281 -1.492188 5.628906 -1.34375 6.203125 -1.34375 C 7.222656 -1.34375 8.15625 -1.753906 9 -2.578125 Z M 10.046875 -1.015625" stroke-linecap="round" />
</g>
		<g transform="matrix(1.33 0 0 1.33 -16.68 4.79)"  >
<path style="stroke: none; stroke-width: 1; stroke-dasharray: none; stroke-linecap: butt; stroke-dashoffset: 0; stroke-linejoin: miter; stroke-miterlimit: 4; fill: rgb(24,49,114); fill-rule: nonzero; opacity: 1;" vector-effect="non-scaling-stroke"  transform=" translate(-3.61, 4.41)" d="M 6.609375 -6.171875 C 6.609375 -5.304688 6.300781 -4.648438 5.6875 -4.203125 C 5.070312 -3.753906 4.316406 -3.53125 3.421875 -3.53125 L 2.4375 -3.53125 L 2.4375 0 L 0.796875 0 L 0.796875 -8.078125 C 0.796875 -8.085938 0.765625 -8.203125 0.703125 -8.421875 C 0.648438 -8.648438 0.617188 -8.78125 0.609375 -8.8125 L 3.40625 -8.8125 C 4.363281 -8.8125 5.132812 -8.601562 5.71875 -8.1875 C 6.3125 -7.769531 6.609375 -7.097656 6.609375 -6.171875 Z M 4.84375 -6.171875 C 4.84375 -6.617188 4.726562 -6.96875 4.5 -7.21875 C 4.269531 -7.476562 3.929688 -7.609375 3.484375 -7.609375 L 2.453125 -7.609375 L 2.453125 -4.703125 L 3.46875 -4.703125 C 3.894531 -4.703125 4.226562 -4.835938 4.46875 -5.109375 C 4.71875 -5.378906 4.84375 -5.734375 4.84375 -6.171875 Z M 4.84375 -6.171875" stroke-linecap="round" />
</g>
		<g transform="matrix(1.33 0 0 1.33 -9.16 6.6)"  >
<path style="stroke: none; stroke-width: 1; stroke-dasharray: none; stroke-linecap: butt; stroke-dashoffset: 0; stroke-linejoin: miter; stroke-miterlimit: 4; fill: rgb(24,49,114); fill-rule: nonzero; opacity: 1;" vector-effect="non-scaling-stroke"  transform=" translate(-2.34, 3.05)" d="M 4.234375 -6.09375 L 4 -4.671875 L 3.953125 -4.671875 C 3.597656 -4.671875 3.289062 -4.570312 3.03125 -4.375 C 2.769531 -4.175781 2.515625 -3.90625 2.265625 -3.5625 L 2.265625 0 L 0.8125 0 L 0.8125 -4.375 C 0.8125 -5.101562 0.6875 -5.640625 0.4375 -5.984375 L 1.96875 -6.09375 C 2.132812 -5.695312 2.226562 -5.28125 2.25 -4.84375 C 2.457031 -5.1875 2.742188 -5.476562 3.109375 -5.71875 C 3.472656 -5.96875 3.847656 -6.09375 4.234375 -6.09375 Z M 4.234375 -6.09375" stroke-linecap="round" />
</g>
		<g transform="matrix(1.33 0 0 1.33 -4.67 4.6)"  >
<path style="stroke: none; stroke-width: 1; stroke-dasharray: none; stroke-linecap: butt; stroke-dashoffset: 0; stroke-linejoin: miter; stroke-miterlimit: 4; fill: rgb(24,49,114); fill-rule: nonzero; opacity: 1;" vector-effect="non-scaling-stroke"  transform=" translate(-1.51, 4.55)" d="M 2.21875 0 L 0.78125 0 L 0.78125 -5.328125 C 0.78125 -5.335938 0.769531 -5.390625 0.75 -5.484375 C 0.726562 -5.578125 0.707031 -5.679688 0.6875 -5.796875 C 0.664062 -5.910156 0.65625 -5.972656 0.65625 -5.984375 L 2.21875 -5.984375 Z M 2.15625 -8.8125 C 2.34375 -8.632812 2.4375 -8.414062 2.4375 -8.15625 C 2.4375 -7.894531 2.34375 -7.675781 2.15625 -7.5 C 1.976562 -7.320312 1.757812 -7.234375 1.5 -7.234375 C 1.25 -7.234375 1.03125 -7.320312 0.84375 -7.5 C 0.664062 -7.675781 0.578125 -7.894531 0.578125 -8.15625 C 0.578125 -8.414062 0.664062 -8.632812 0.84375 -8.8125 C 1.03125 -9 1.25 -9.09375 1.5 -9.09375 C 1.757812 -9.09375 1.976562 -9 2.15625 -8.8125 Z M 2.15625 -8.8125" stroke-linecap="round" />
</g>
		<g transform="matrix(1.33 0 0 1.33 0.99 6.71)"  >
<path style="stroke: none; stroke-width: 1; stroke-dasharray: none; stroke-linecap: butt; stroke-dashoffset: 0; stroke-linejoin: miter; stroke-miterlimit: 4; fill: rgb(24,49,114); fill-rule: nonzero; opacity: 1;" vector-effect="non-scaling-stroke"  transform=" translate(-2.73, 2.97)" d="M 5.5 -5.984375 L 3.375 0.046875 L 2.078125 0.046875 L -0.03125 -5.984375 L 1.53125 -5.984375 L 2.625 -2.828125 C 2.695312 -2.628906 2.78125 -2.289062 2.875 -1.8125 C 2.976562 -2.382812 3.046875 -2.722656 3.078125 -2.828125 L 4.203125 -5.984375 Z M 5.5 -5.984375" stroke-linecap="round" />
</g>
		<g transform="matrix(1.33 0 0 1.33 6.65 4.6)"  >
<path style="stroke: none; stroke-width: 1; stroke-dasharray: none; stroke-linecap: butt; stroke-dashoffset: 0; stroke-linejoin: miter; stroke-miterlimit: 4; fill: rgb(24,49,114); fill-rule: nonzero; opacity: 1;" vector-effect="non-scaling-stroke"  transform=" translate(-1.51, 4.55)" d="M 2.21875 0 L 0.78125 0 L 0.78125 -5.328125 C 0.78125 -5.335938 0.769531 -5.390625 0.75 -5.484375 C 0.726562 -5.578125 0.707031 -5.679688 0.6875 -5.796875 C 0.664062 -5.910156 0.65625 -5.972656 0.65625 -5.984375 L 2.21875 -5.984375 Z M 2.15625 -8.8125 C 2.34375 -8.632812 2.4375 -8.414062 2.4375 -8.15625 C 2.4375 -7.894531 2.34375 -7.675781 2.15625 -7.5 C 1.976562 -7.320312 1.757812 -7.234375 1.5 -7.234375 C 1.25 -7.234375 1.03125 -7.320312 0.84375 -7.5 C 0.664062 -7.675781 0.578125 -7.894531 0.578125 -8.15625 C 0.578125 -8.414062 0.664062 -8.632812 0.84375 -8.8125 C 1.03125 -9 1.25 -9.09375 1.5 -9.09375 C 1.757812 -9.09375 1.976562 -9 2.15625 -8.8125 Z M 2.15625 -8.8125" stroke-linecap="round" />
</g>
		<g transform="matrix(1.33 0 0 1.33 10.56 4.5)"  >
<path style="stroke: none; stroke-width: 1; stroke-dasharray: none; stroke-linecap: butt; stroke-dashoffset: 0; stroke-linejoin: miter; stroke-miterlimit: 4; fill: rgb(24,49,114); fill-rule: nonzero; opacity: 1;" vector-effect="non-scaling-stroke"  transform=" translate(-1.42, 4.63)" d="M 2.21875 0 L 0.765625 0 L 0.765625 -8.609375 C 0.765625 -8.609375 0.753906 -8.65625 0.734375 -8.75 C 0.710938 -8.851562 0.6875 -8.957031 0.65625 -9.0625 C 0.632812 -9.175781 0.625 -9.238281 0.625 -9.25 L 2.21875 -9.25 Z M 2.21875 0" stroke-linecap="round" />
</g>
		<g transform="matrix(1.33 0 0 1.33 16.64 6.65)"  >
<path style="stroke: none; stroke-width: 1; stroke-dasharray: none; stroke-linecap: butt; stroke-dashoffset: 0; stroke-linejoin: miter; stroke-miterlimit: 4; fill: rgb(24,49,114); fill-rule: nonzero; opacity: 1;" vector-effect="non-scaling-stroke"  transform=" translate(-2.96, 3.01)" d="M 5.609375 -3.53125 C 5.609375 -3.050781 5.40625 -2.8125 5 -2.8125 L 1.84375 -2.8125 C 1.84375 -2.300781 1.976562 -1.84375 2.25 -1.4375 C 2.519531 -1.03125 2.898438 -0.828125 3.390625 -0.828125 C 3.640625 -0.828125 3.898438 -0.882812 4.171875 -1 C 4.441406 -1.125 4.664062 -1.28125 4.84375 -1.46875 L 5.46875 -0.5 C 5.21875 -0.289062 4.890625 -0.132812 4.484375 -0.03125 C 4.078125 0.0703125 3.691406 0.125 3.328125 0.125 C 2.390625 0.125 1.648438 -0.148438 1.109375 -0.703125 C 0.578125 -1.265625 0.3125 -2.015625 0.3125 -2.953125 C 0.3125 -3.835938 0.5625 -4.585938 1.0625 -5.203125 C 1.5625 -5.828125 2.242188 -6.140625 3.109375 -6.140625 C 3.898438 -6.140625 4.515625 -5.90625 4.953125 -5.4375 C 5.390625 -4.96875 5.609375 -4.332031 5.609375 -3.53125 Z M 4.109375 -4.03125 C 4.109375 -4.363281 4.019531 -4.632812 3.84375 -4.84375 C 3.675781 -5.050781 3.4375 -5.15625 3.125 -5.15625 C 2.800781 -5.15625 2.515625 -5.003906 2.265625 -4.703125 C 2.023438 -4.410156 1.894531 -4.097656 1.875 -3.765625 L 3.890625 -3.765625 C 4.035156 -3.765625 4.109375 -3.851562 4.109375 -4.03125 Z M 4.109375 -4.03125" stroke-linecap="round" />
</g>
		<g transform="matrix(1.33 0 0 1.33 24.64 8.4)"  >
<path style="stroke: none; stroke-width: 1; stroke-dasharray: none; stroke-linecap: butt; stroke-dashoffset: 0; stroke-linejoin: miter; stroke-miterlimit: 4; fill: rgb(24,49,114); fill-rule: nonzero; opacity: 1;" vector-effect="non-scaling-stroke"  transform=" translate(-3.02, 1.7)" d="M 2.984375 -1.09375 L 3.53125 -1.09375 C 3.769531 -1.09375 3.972656 -1.085938 4.140625 -1.078125 C 4.316406 -1.066406 4.507812 -1.035156 4.71875 -0.984375 C 4.925781 -0.929688 5.09375 -0.859375 5.21875 -0.765625 C 5.351562 -0.671875 5.460938 -0.535156 5.546875 -0.359375 C 5.640625 -0.179688 5.6875 0.03125 5.6875 0.28125 C 5.6875 0.820312 5.507812 1.289062 5.15625 1.6875 C 4.8125 2.082031 4.398438 2.359375 3.921875 2.515625 C 3.441406 2.679688 2.9375 2.765625 2.40625 2.765625 C 2.132812 2.765625 1.867188 2.742188 1.609375 2.703125 C 1.359375 2.660156 1.101562 2.585938 0.84375 2.484375 C 0.59375 2.378906 0.390625 2.222656 0.234375 2.015625 C 0.078125 1.804688 0 1.554688 0 1.265625 C 0 0.929688 0.0976562 0.625 0.296875 0.34375 C 0.503906 0.0625 0.757812 -0.144531 1.0625 -0.28125 L 1.0625 -0.328125 C 0.914062 -0.367188 0.785156 -0.46875 0.671875 -0.625 C 0.554688 -0.78125 0.5 -0.953125 0.5 -1.140625 C 0.5 -1.203125 0.539062 -1.273438 0.625 -1.359375 C 0.71875 -1.441406 0.84375 -1.566406 1 -1.734375 C 1.15625 -1.910156 1.296875 -2.109375 1.421875 -2.328125 C 0.703125 -2.722656 0.34375 -3.3125 0.34375 -4.09375 C 0.34375 -4.695312 0.566406 -5.191406 1.015625 -5.578125 C 1.460938 -5.960938 2 -6.15625 2.625 -6.15625 C 2.800781 -6.15625 3.023438 -6.125 3.296875 -6.0625 C 3.566406 -6.007812 3.769531 -5.984375 3.90625 -5.984375 C 4.3125 -5.984375 5.023438 -6.023438 6.046875 -6.109375 L 5.78125 -5.109375 L 4.765625 -5.109375 C 4.710938 -5.109375 4.617188 -5.128906 4.484375 -5.171875 C 4.742188 -4.847656 4.875 -4.492188 4.875 -4.109375 C 4.875 -3.484375 4.644531 -2.976562 4.1875 -2.59375 C 3.738281 -2.207031 3.195312 -2.015625 2.5625 -2.015625 C 2.40625 -2.015625 2.269531 -1.960938 2.15625 -1.859375 C 2.050781 -1.753906 2 -1.628906 2 -1.484375 C 2 -1.222656 2.328125 -1.09375 2.984375 -1.09375 Z M 3.15625 0 L 2.0625 0 C 1.894531 0.0820312 1.753906 0.21875 1.640625 0.40625 C 1.523438 0.601562 1.46875 0.796875 1.46875 0.984375 C 1.46875 1.242188 1.582031 1.429688 1.8125 1.546875 C 2.050781 1.671875 2.3125 1.734375 2.59375 1.734375 C 2.800781 1.734375 2.992188 1.71875 3.171875 1.6875 C 3.359375 1.65625 3.539062 1.597656 3.71875 1.515625 C 3.90625 1.441406 4.050781 1.328125 4.15625 1.171875 C 4.257812 1.015625 4.3125 0.828125 4.3125 0.609375 C 4.3125 0.203125 3.925781 0 3.15625 0 Z M 2.0625 -3.203125 C 2.195312 -2.972656 2.378906 -2.859375 2.609375 -2.859375 C 2.835938 -2.859375 3.019531 -2.96875 3.15625 -3.1875 C 3.300781 -3.414062 3.375 -3.703125 3.375 -4.046875 C 3.375 -4.398438 3.300781 -4.6875 3.15625 -4.90625 C 3.019531 -5.132812 2.835938 -5.25 2.609375 -5.25 C 2.378906 -5.25 2.195312 -5.132812 2.0625 -4.90625 C 1.925781 -4.6875 1.859375 -4.398438 1.859375 -4.046875 C 1.859375 -3.703125 1.925781 -3.421875 2.0625 -3.203125 Z M 2.0625 -3.203125" stroke-linecap="round" />
</g>
		<g transform="matrix(1.33 0 0 1.33 32.22 6.65)"  >
<path style="stroke: none; stroke-width: 1; stroke-dasharray: none; stroke-linecap: butt; stroke-dashoffset: 0; stroke-linejoin: miter; stroke-miterlimit: 4; fill: rgb(24,49,114); fill-rule: nonzero; opacity: 1;" vector-effect="non-scaling-stroke"  transform=" translate(-2.96, 3.01)" d="M 5.609375 -3.53125 C 5.609375 -3.050781 5.40625 -2.8125 5 -2.8125 L 1.84375 -2.8125 C 1.84375 -2.300781 1.976562 -1.84375 2.25 -1.4375 C 2.519531 -1.03125 2.898438 -0.828125 3.390625 -0.828125 C 3.640625 -0.828125 3.898438 -0.882812 4.171875 -1 C 4.441406 -1.125 4.664062 -1.28125 4.84375 -1.46875 L 5.46875 -0.5 C 5.21875 -0.289062 4.890625 -0.132812 4.484375 -0.03125 C 4.078125 0.0703125 3.691406 0.125 3.328125 0.125 C 2.390625 0.125 1.648438 -0.148438 1.109375 -0.703125 C 0.578125 -1.265625 0.3125 -2.015625 0.3125 -2.953125 C 0.3125 -3.835938 0.5625 -4.585938 1.0625 -5.203125 C 1.5625 -5.828125 2.242188 -6.140625 3.109375 -6.140625 C 3.898438 -6.140625 4.515625 -5.90625 4.953125 -5.4375 C 5.390625 -4.96875 5.609375 -4.332031 5.609375 -3.53125 Z M 4.109375 -4.03125 C 4.109375 -4.363281 4.019531 -4.632812 3.84375 -4.84375 C 3.675781 -5.050781 3.4375 -5.15625 3.125 -5.15625 C 2.800781 -5.15625 2.515625 -5.003906 2.265625 -4.703125 C 2.023438 -4.410156 1.894531 -4.097656 1.875 -3.765625 L 3.890625 -3.765625 C 4.035156 -3.765625 4.109375 -3.851562 4.109375 -4.03125 Z M 4.109375 -4.03125" stroke-linecap="round" />
</g>
		<g transform="matrix(1.33 0 0 1.33 40.56 4.6)"  >
<path style="stroke: none; stroke-width: 1; stroke-dasharray: none; stroke-linecap: butt; stroke-dashoffset: 0; stroke-linejoin: miter; stroke-miterlimit: 4; fill: rgb(24,49,114); fill-rule: nonzero; opacity: 1;" vector-effect="non-scaling-stroke"  transform=" translate(-3.27, 4.55)" d="M 6.203125 -0.03125 L 4.734375 0.109375 C 4.671875 -0.0664062 4.613281 -0.304688 4.5625 -0.609375 C 4.394531 -0.378906 4.15625 -0.195312 3.84375 -0.0625 C 3.53125 0.0703125 3.21875 0.140625 2.90625 0.140625 C 2.09375 0.140625 1.460938 -0.164062 1.015625 -0.78125 C 0.566406 -1.394531 0.34375 -2.117188 0.34375 -2.953125 C 0.34375 -3.859375 0.582031 -4.613281 1.0625 -5.21875 C 1.550781 -5.820312 2.238281 -6.125 3.125 -6.125 C 3.707031 -6.125 4.15625 -5.992188 4.46875 -5.734375 C 4.457031 -5.953125 4.453125 -6.195312 4.453125 -6.46875 L 4.453125 -8.59375 L 4.265625 -9.234375 L 5.890625 -9.234375 L 5.890625 -1.703125 C 5.890625 -0.960938 5.992188 -0.40625 6.203125 -0.03125 Z M 4.453125 -1.546875 L 4.453125 -3.515625 C 4.453125 -3.972656 4.359375 -4.347656 4.171875 -4.640625 C 3.984375 -4.941406 3.679688 -5.09375 3.265625 -5.09375 C 2.929688 -5.09375 2.65625 -4.972656 2.4375 -4.734375 C 2.226562 -4.492188 2.085938 -4.222656 2.015625 -3.921875 C 1.941406 -3.628906 1.90625 -3.328125 1.90625 -3.015625 C 1.90625 -2.484375 2.019531 -2 2.25 -1.5625 C 2.476562 -1.132812 2.832031 -0.921875 3.3125 -0.921875 C 3.53125 -0.921875 3.742188 -0.976562 3.953125 -1.09375 C 4.160156 -1.21875 4.328125 -1.367188 4.453125 -1.546875 Z M 4.453125 -1.546875" stroke-linecap="round" />
</g>
		<g transform="matrix(1.33 0 0 1.33 53.89 4.79)"  >
<path style="stroke: none; stroke-width: 1; stroke-dasharray: none; stroke-linecap: butt; stroke-dashoffset: 0; stroke-linejoin: miter; stroke-miterlimit: 4; fill: rgb(24,49,114); fill-rule: nonzero; opacity: 1;" vector-effect="non-scaling-stroke"  transform=" translate(-3.8, 4.41)" d="M 7.5625 0 L 5.78125 0 L 4.921875 -2.53125 L 2.328125 -2.53125 L 1.421875 0 L 0.03125 0 L 3.140625 -8.8125 L 4.453125 -8.8125 Z M 4.53125 -3.703125 C 4.144531 -4.878906 3.835938 -5.882812 3.609375 -6.71875 C 3.335938 -5.707031 3.046875 -4.703125 2.734375 -3.703125 Z M 4.53125 -3.703125" stroke-linecap="round" />
</g>
		<g transform="matrix(1.33 0 0 1.33 62.69 6.66)"  >
<path style="stroke: none; stroke-width: 1; stroke-dasharray: none; stroke-linecap: butt; stroke-dashoffset: 0; stroke-linejoin: miter; stroke-miterlimit: 4; fill: rgb(24,49,114); fill-rule: nonzero; opacity: 1;" vector-effect="non-scaling-stroke"  transform=" translate(-2.81, 3)" d="M 5.3125 -0.421875 C 4.914062 -0.222656 4.566406 -0.0820312 4.265625 0 C 3.972656 0.09375 3.628906 0.140625 3.234375 0.140625 C 2.304688 0.140625 1.585938 -0.144531 1.078125 -0.71875 C 0.566406 -1.289062 0.3125 -2.050781 0.3125 -3 C 0.3125 -3.9375 0.59375 -4.691406 1.15625 -5.265625 C 1.726562 -5.847656 2.476562 -6.140625 3.40625 -6.140625 C 3.695312 -6.140625 4.007812 -6.085938 4.34375 -5.984375 C 4.6875 -5.878906 4.976562 -5.738281 5.21875 -5.5625 L 4.5 -4.640625 C 4.082031 -4.953125 3.671875 -5.109375 3.265625 -5.109375 C 2.804688 -5.109375 2.460938 -4.890625 2.234375 -4.453125 C 2.015625 -4.015625 1.90625 -3.535156 1.90625 -3.015625 C 1.90625 -2.660156 1.945312 -2.328125 2.03125 -2.015625 C 2.125 -1.703125 2.289062 -1.429688 2.53125 -1.203125 C 2.78125 -0.972656 3.085938 -0.859375 3.453125 -0.859375 C 3.816406 -0.859375 4.234375 -1.054688 4.703125 -1.453125 Z M 5.3125 -0.421875" stroke-linecap="round" />
</g>
		<g transform="matrix(1.33 0 0 1.33 69.9 6.66)"  >
<path style="stroke: none; stroke-width: 1; stroke-dasharray: none; stroke-linecap: butt; stroke-dashoffset: 0; stroke-linejoin: miter; stroke-miterlimit: 4; fill: rgb(24,49,114); fill-rule: nonzero; opacity: 1;" vector-effect="non-scaling-stroke"  transform=" translate(-2.81, 3)" d="M 5.3125 -0.421875 C 4.914062 -0.222656 4.566406 -0.0820312 4.265625 0 C 3.972656 0.09375 3.628906 0.140625 3.234375 0.140625 C 2.304688 0.140625 1.585938 -0.144531 1.078125 -0.71875 C 0.566406 -1.289062 0.3125 -2.050781 0.3125 -3 C 0.3125 -3.9375 0.59375 -4.691406 1.15625 -5.265625 C 1.726562 -5.847656 2.476562 -6.140625 3.40625 -6.140625 C 3.695312 -6.140625 4.007812 -6.085938 4.34375 -5.984375 C 4.6875 -5.878906 4.976562 -5.738281 5.21875 -5.5625 L 4.5 -4.640625 C 4.082031 -4.953125 3.671875 -5.109375 3.265625 -5.109375 C 2.804688 -5.109375 2.460938 -4.890625 2.234375 -4.453125 C 2.015625 -4.015625 1.90625 -3.535156 1.90625 -3.015625 C 1.90625 -2.660156 1.945312 -2.328125 2.03125 -2.015625 C 2.125 -1.703125 2.289062 -1.429688 2.53125 -1.203125 C 2.78125 -0.972656 3.085938 -0.859375 3.453125 -0.859375 C 3.816406 -0.859375 4.234375 -1.054688 4.703125 -1.453125 Z M 5.3125 -0.421875" stroke-linecap="round" />
</g>
		<g transform="matrix(1.33 0 0 1.33 77.32 6.65)"  >
<path style="stroke: none; stroke-width: 1; stroke-dasharray: none; stroke-linecap: butt; stroke-dashoffset: 0; stroke-linejoin: miter; stroke-miterlimit: 4; fill: rgb(24,49,114); fill-rule: nonzero; opacity: 1;" vector-effect="non-scaling-stroke"  transform=" translate(-2.96, 3.01)" d="M 5.609375 -3.53125 C 5.609375 -3.050781 5.40625 -2.8125 5 -2.8125 L 1.84375 -2.8125 C 1.84375 -2.300781 1.976562 -1.84375 2.25 -1.4375 C 2.519531 -1.03125 2.898438 -0.828125 3.390625 -0.828125 C 3.640625 -0.828125 3.898438 -0.882812 4.171875 -1 C 4.441406 -1.125 4.664062 -1.28125 4.84375 -1.46875 L 5.46875 -0.5 C 5.21875 -0.289062 4.890625 -0.132812 4.484375 -0.03125 C 4.078125 0.0703125 3.691406 0.125 3.328125 0.125 C 2.390625 0.125 1.648438 -0.148438 1.109375 -0.703125 C 0.578125 -1.265625 0.3125 -2.015625 0.3125 -2.953125 C 0.3125 -3.835938 0.5625 -4.585938 1.0625 -5.203125 C 1.5625 -5.828125 2.242188 -6.140625 3.109375 -6.140625 C 3.898438 -6.140625 4.515625 -5.90625 4.953125 -5.4375 C 5.390625 -4.96875 5.609375 -4.332031 5.609375 -3.53125 Z M 4.109375 -4.03125 C 4.109375 -4.363281 4.019531 -4.632812 3.84375 -4.84375 C 3.675781 -5.050781 3.4375 -5.15625 3.125 -5.15625 C 2.800781 -5.15625 2.515625 -5.003906 2.265625 -4.703125 C 2.023438 -4.410156 1.894531 -4.097656 1.875 -3.765625 L 3.890625 -3.765625 C 4.035156 -3.765625 4.109375 -3.851562 4.109375 -4.03125 Z M 4.109375 -4.03125" stroke-linecap="round" />
</g>
		<g transform="matrix(1.33 0 0 1.33 84.71 6.69)"  >
<path style="stroke: none; stroke-width: 1; stroke-dasharray: none; stroke-linecap: butt; stroke-dashoffset: 0; stroke-linejoin: miter; stroke-miterlimit: 4; fill: rgb(24,49,114); fill-rule: nonzero; opacity: 1;" vector-effect="non-scaling-stroke"  transform=" translate(-2.56, 2.98)" d="M 4.734375 -1.859375 C 4.734375 -1.242188 4.5 -0.75 4.03125 -0.375 C 3.5625 -0.0078125 3.007812 0.171875 2.375 0.171875 C 1.675781 0.171875 1.015625 0 0.390625 -0.34375 L 0.90625 -1.328125 C 1.445312 -1.015625 1.898438 -0.859375 2.265625 -0.859375 C 2.515625 -0.859375 2.726562 -0.921875 2.90625 -1.046875 C 3.082031 -1.179688 3.171875 -1.375 3.171875 -1.625 C 3.171875 -1.84375 3.078125 -2.019531 2.890625 -2.15625 C 2.710938 -2.300781 2.492188 -2.414062 2.234375 -2.5 C 1.984375 -2.59375 1.726562 -2.695312 1.46875 -2.8125 C 1.207031 -2.9375 0.984375 -3.117188 0.796875 -3.359375 C 0.617188 -3.597656 0.53125 -3.898438 0.53125 -4.265625 C 0.53125 -4.859375 0.757812 -5.316406 1.21875 -5.640625 C 1.675781 -5.972656 2.21875 -6.140625 2.84375 -6.140625 C 3.519531 -6.140625 4.109375 -6.015625 4.609375 -5.765625 L 4.109375 -4.75 C 3.753906 -5.019531 3.351562 -5.15625 2.90625 -5.15625 C 2.6875 -5.15625 2.492188 -5.101562 2.328125 -5 C 2.171875 -4.894531 2.09375 -4.738281 2.09375 -4.53125 C 2.09375 -4.320312 2.179688 -4.15625 2.359375 -4.03125 C 2.546875 -3.90625 2.769531 -3.796875 3.03125 -3.703125 C 3.289062 -3.609375 3.546875 -3.5 3.796875 -3.375 C 4.054688 -3.257812 4.273438 -3.070312 4.453125 -2.8125 C 4.640625 -2.5625 4.734375 -2.242188 4.734375 -1.859375 Z M 4.734375 -1.859375" stroke-linecap="round" />
</g>
		<g transform="matrix(1.33 0 0 1.33 91.6 6.69)"  >
<path style="stroke: none; stroke-width: 1; stroke-dasharray: none; stroke-linecap: butt; stroke-dashoffset: 0; stroke-linejoin: miter; stroke-miterlimit: 4; fill: rgb(24,49,114); fill-rule: nonzero; opacity: 1;" vector-effect="non-scaling-stroke"  transform=" translate(-2.56, 2.98)" d="M 4.734375 -1.859375 C 4.734375 -1.242188 4.5 -0.75 4.03125 -0.375 C 3.5625 -0.0078125 3.007812 0.171875 2.375 0.171875 C 1.675781 0.171875 1.015625 0 0.390625 -0.34375 L 0.90625 -1.328125 C 1.445312 -1.015625 1.898438 -0.859375 2.265625 -0.859375 C 2.515625 -0.859375 2.726562 -0.921875 2.90625 -1.046875 C 3.082031 -1.179688 3.171875 -1.375 3.171875 -1.625 C 3.171875 -1.84375 3.078125 -2.019531 2.890625 -2.15625 C 2.710938 -2.300781 2.492188 -2.414062 2.234375 -2.5 C 1.984375 -2.59375 1.726562 -2.695312 1.46875 -2.8125 C 1.207031 -2.9375 0.984375 -3.117188 0.796875 -3.359375 C 0.617188 -3.597656 0.53125 -3.898438 0.53125 -4.265625 C 0.53125 -4.859375 0.757812 -5.316406 1.21875 -5.640625 C 1.675781 -5.972656 2.21875 -6.140625 2.84375 -6.140625 C 3.519531 -6.140625 4.109375 -6.015625 4.609375 -5.765625 L 4.109375 -4.75 C 3.753906 -5.019531 3.351562 -5.15625 2.90625 -5.15625 C 2.6875 -5.15625 2.492188 -5.101562 2.328125 -5 C 2.171875 -4.894531 2.09375 -4.738281 2.09375 -4.53125 C 2.09375 -4.320312 2.179688 -4.15625 2.359375 -4.03125 C 2.546875 -3.90625 2.769531 -3.796875 3.03125 -3.703125 C 3.289062 -3.609375 3.546875 -3.5 3.796875 -3.375 C 4.054688 -3.257812 4.273438 -3.070312 4.453125 -2.8125 C 4.640625 -2.5625 4.734375 -2.242188 4.734375 -1.859375 Z M 4.734375 -1.859375" stroke-linecap="round" />
</g>
</g>
</g>
</svg>